<svg t="1693055383840" class="icon" viewBox="0 0 1024 1024" version="1.1" xmlns="http://www.w3.org/2000/svg" p-id="7230" width="200" height="200">
    <path d="M533.333333 213.333333C356.693333 213.333333 213.333333 356.693333 213.333333 533.333333 213.333333 709.973333 356.693333 853.333333 533.333333 853.333333 709.973333 853.333333 853.333333 709.973333 853.333333 533.333333 853.333333 356.693333 709.973333 213.333333 533.333333 213.333333M298.666667 426.666667 384 426.666667C407.466667 426.666667 426.666667 445.866667 426.666667 469.333333L426.666667 512C426.666667 533.333333 410.453333 550.4 389.973333 553.386667L439.893333 640 390.4 640 341.333333 554.666667 341.333333 640 298.666667 640M512 426.666667 597.333333 426.666667 597.333333 469.333333 512 469.333333 512 512 597.333333 512 597.333333 554.666667 512 554.666667 512 597.333333 597.333333 597.333333 597.333333 640 512 640C488.533333 640 469.333333 620.8 469.333333 597.333333L469.333333 469.333333C469.333333 445.866667 488.533333 426.666667 512 426.666667M682.666667 426.666667 768 426.666667 768 469.333333 682.666667 469.333333 682.666667 597.333333 768 597.333333 768 640 682.666667 640C659.2 640 640 620.8 640 597.333333L640 469.333333C640 445.866667 659.2 426.666667 682.666667 426.666667M341.333333 469.333333 341.333333 512 384 512 384 469.333333" p-id="7231">
    </path>
</svg>