<svg t="1693045983977" class="icon" viewBox="0 0 1187 1024" version="1.1" xmlns="http://www.w3.org/2000/svg" p-id="4544" width="200" height="200">
  <path d="M593.92 368.64c12.288 0 20.48-8.192 20.48-20.48v-327.68c0-12.288-8.192-20.48-20.48-20.48s-20.48 8.192-20.48 20.48v327.68c0 12.288 8.192 20.48 20.48 20.48z m245.76 204.8h81.92c12.288 0 20.48-8.192 20.48-20.48s-8.192-20.48-20.48-20.48h-81.92c-12.288 0-20.48 8.192-20.48 20.48s8.192 20.48 20.48 20.48z m-573.44 0h122.88c12.288 0 20.48-8.192 20.48-20.48s-8.192-20.48-20.48-20.48h-122.88c-12.288 0-20.48 8.192-20.48 20.48s8.192 20.48 20.48 20.48z m860.16-122.88c12.288 0 20.48-8.192 20.48-20.48s-8.192-20.48-20.48-20.48c-77.824 0-114.688 73.728-143.36 135.168-32.768 69.632-53.248 110.592-102.4 110.592-53.248 0-90.112-57.344-126.976-114.688-40.96-65.536-86.016-131.072-159.744-131.072-77.824 0-114.688 73.728-151.552 135.168C409.6 602.112 380.928 655.36 327.68 655.36s-81.92-53.248-114.688-110.592C176.128 479.232 139.264 409.6 61.44 409.6c-12.288 0-20.48 8.192-20.48 20.48s8.192 20.48 20.48 20.48c53.248 0 81.92 53.248 114.688 110.592C212.992 626.688 249.856 696.32 327.68 696.32s114.688-73.728 151.552-135.168c32.768-57.344 61.44-110.592 114.688-110.592s90.112 57.344 126.976 114.688c40.96 65.536 86.016 131.072 159.744 131.072 77.824 0 110.592-69.632 143.36-135.168 32.768-69.632 53.248-110.592 102.4-110.592z m40.96 81.92h-81.92c-12.288 0-20.48 8.192-20.48 20.48s8.192 20.48 20.48 20.48h81.92c12.288 0 20.48-8.192 20.48-20.48s-8.192-20.48-20.48-20.48z m-1064.96 0h-81.92c-12.288 0-20.48 8.192-20.48 20.48s8.192 20.48 20.48 20.48h81.92c12.288 0 20.48-8.192 20.48-20.48s-8.192-20.48-20.48-20.48z m532.48 0H614.4v-20.48c0-12.288-8.192-20.48-20.48-20.48s-20.48 8.192-20.48 20.48v20.48h-20.48c-12.288 0-20.48 8.192-20.48 20.48s8.192 20.48 20.48 20.48h20.48v430.08c0 12.288 8.192 20.48 20.48 20.48s20.48-8.192 20.48-20.48V573.44h20.48c12.288 0 20.48-8.192 20.48-20.48s-8.192-20.48-20.48-20.48z" fill="" p-id="4545">
  </path>
</svg>